# xmcd CD database file
#
# Track frame offsets:
#	150
#	31391
#	48698
#	75041
#	113641
#	136713
#	156653
#	181773
#	214291
#	230963
#	252731
#	279553
#
# Disc length: 4067 seconds
#
# Revision: 0
# Processed by: cddbd v1.5.2PL0 Copyright (c) Steve Scherf et al.
# Submitted via: CDex 1.70beta2
#
DISCID=aa0fe10c
DTITLE=Oddbar Trio plus Trombone - Lost Art Cafe
DYEAR=1998
DGENRE=Jazz
TTITLE0=Cletus Ngugu
TTITLE1=Stomin' At The Savoy
TTITLE2=Ode To Idaho
TTITLE3=Suesy Bluesy
TTITLE4=6 Beat Cajun Mambo
TTITLE5=Pyscho Cycle
TTITLE6=Monk's Mood
TTITLE7=A Call For All Demons
TTITLE8=Little Ditty
TTITLE9=Lost Art Cafe
TTITLE10=Perpendicular Promenade (Johnny C.'s Superlocrian Lovefest)
TTITLE11=July Hymn
EXTD=YEAR: 1998
EXTT0=
EXTT1=
EXTT2=
EXTT3=
EXTT4=
EXTT5=
EXTT6=
EXTT7=
EXTT8=
EXTT9=
EXTT10=
EXTT11=
PLAYORDER=
